<mxfile host="app.diagrams.net" modified="2021-12-08T15:35:31.535Z" agent="5.0 (Windows NT 10.0; Win64; x64) AppleWebKit/537.36 (KHTML, like Gecko) Chrome/96.0.4664.93 Safari/537.36" etag="t_Xs3jdBEdBzaLpcuX0u" version="15.8.9" type="github">
  <diagram id="SZ-bWfR9CtF9rOeo5Cvq" name="Page-1">
    <mxGraphModel dx="868" dy="490" grid="1" gridSize="10" guides="1" tooltips="1" connect="1" arrows="1" fold="1" page="1" pageScale="1" pageWidth="850" pageHeight="1100" math="0" shadow="0">
      <root>
        <mxCell id="0" />
        <mxCell id="1" parent="0" />
        <mxCell id="2XuXiQTuLc87KXWq7jhm-22" style="edgeStyle=orthogonalEdgeStyle;rounded=0;orthogonalLoop=1;jettySize=auto;html=1;exitX=1;exitY=0.5;exitDx=0;exitDy=0;entryX=0;entryY=0.5;entryDx=0;entryDy=0;" parent="1" source="2XuXiQTuLc87KXWq7jhm-1" target="2XuXiQTuLc87KXWq7jhm-21" edge="1">
          <mxGeometry relative="1" as="geometry">
            <mxPoint x="570" y="70" as="targetPoint" />
          </mxGeometry>
        </mxCell>
        <mxCell id="2XuXiQTuLc87KXWq7jhm-45" style="edgeStyle=orthogonalEdgeStyle;rounded=0;orthogonalLoop=1;jettySize=auto;html=1;exitX=0.5;exitY=1;exitDx=0;exitDy=0;entryX=0.5;entryY=0;entryDx=0;entryDy=0;" parent="1" source="2XuXiQTuLc87KXWq7jhm-1" target="2XuXiQTuLc87KXWq7jhm-3" edge="1">
          <mxGeometry relative="1" as="geometry" />
        </mxCell>
        <mxCell id="2XuXiQTuLc87KXWq7jhm-1" value="Input audio:&lt;br&gt;8000 Hz&lt;br&gt;1s-3s duration&lt;br&gt;window length 25ms&lt;br&gt;hop length 10ms" style="shape=parallelogram;perimeter=parallelogramPerimeter;whiteSpace=wrap;html=1;fixedSize=1;" parent="1" vertex="1">
          <mxGeometry x="330" y="30" width="180" height="80" as="geometry" />
        </mxCell>
        <mxCell id="2XuXiQTuLc87KXWq7jhm-47" style="edgeStyle=orthogonalEdgeStyle;rounded=0;orthogonalLoop=1;jettySize=auto;html=1;exitX=0.5;exitY=1;exitDx=0;exitDy=0;entryX=0.363;entryY=0;entryDx=0;entryDy=0;entryPerimeter=0;" parent="1" source="2XuXiQTuLc87KXWq7jhm-2" target="2XuXiQTuLc87KXWq7jhm-4" edge="1">
          <mxGeometry relative="1" as="geometry" />
        </mxCell>
        <mxCell id="2XuXiQTuLc87KXWq7jhm-2" value="Sinc filter layer" style="rounded=0;whiteSpace=wrap;html=1;" parent="1" vertex="1">
          <mxGeometry x="360" y="210" width="120" height="60" as="geometry" />
        </mxCell>
        <mxCell id="2XuXiQTuLc87KXWq7jhm-46" style="edgeStyle=orthogonalEdgeStyle;rounded=0;orthogonalLoop=1;jettySize=auto;html=1;exitX=0.5;exitY=1;exitDx=0;exitDy=0;entryX=0.5;entryY=0;entryDx=0;entryDy=0;" parent="1" source="2XuXiQTuLc87KXWq7jhm-3" target="2XuXiQTuLc87KXWq7jhm-2" edge="1">
          <mxGeometry relative="1" as="geometry" />
        </mxCell>
        <mxCell id="2XuXiQTuLc87KXWq7jhm-3" value="Layer Norm for input" style="rounded=0;whiteSpace=wrap;html=1;" parent="1" vertex="1">
          <mxGeometry x="360" y="130" width="120" height="60" as="geometry" />
        </mxCell>
        <mxCell id="2XuXiQTuLc87KXWq7jhm-4" value="layer 1" style="swimlane;" parent="1" vertex="1">
          <mxGeometry x="320" y="290" width="270" height="150" as="geometry" />
        </mxCell>
        <mxCell id="2XuXiQTuLc87KXWq7jhm-5" value="Res Block" style="rounded=0;whiteSpace=wrap;html=1;" parent="2XuXiQTuLc87KXWq7jhm-4" vertex="1">
          <mxGeometry x="40" y="30" width="120" height="60" as="geometry" />
        </mxCell>
        <mxCell id="2XuXiQTuLc87KXWq7jhm-10" value="" style="shape=curlyBracket;whiteSpace=wrap;html=1;rounded=1;flipH=1;" parent="2XuXiQTuLc87KXWq7jhm-4" vertex="1">
          <mxGeometry x="170" y="40" width="20" height="100" as="geometry" />
        </mxCell>
        <mxCell id="2XuXiQTuLc87KXWq7jhm-6" value="" style="endArrow=none;dashed=1;html=1;dashPattern=1 3;strokeWidth=2;rounded=0;" parent="2XuXiQTuLc87KXWq7jhm-4" edge="1">
          <mxGeometry width="50" height="50" relative="1" as="geometry">
            <mxPoint x="99.5" y="100" as="sourcePoint" />
            <mxPoint x="99.5" y="140" as="targetPoint" />
          </mxGeometry>
        </mxCell>
        <mxCell id="2XuXiQTuLc87KXWq7jhm-11" value="n &lt;br&gt;blocks" style="text;html=1;align=center;verticalAlign=middle;resizable=0;points=[];autosize=1;strokeColor=none;fillColor=none;" parent="2XuXiQTuLc87KXWq7jhm-4" vertex="1">
          <mxGeometry x="190" y="75" width="50" height="30" as="geometry" />
        </mxCell>
        <mxCell id="2XuXiQTuLc87KXWq7jhm-7" value="" style="endArrow=none;dashed=1;html=1;dashPattern=1 3;strokeWidth=2;rounded=0;" parent="1" edge="1">
          <mxGeometry width="50" height="50" relative="1" as="geometry">
            <mxPoint x="420" y="450" as="sourcePoint" />
            <mxPoint x="420" y="490" as="targetPoint" />
          </mxGeometry>
        </mxCell>
        <mxCell id="2XuXiQTuLc87KXWq7jhm-8" value="" style="shape=curlyBracket;whiteSpace=wrap;html=1;rounded=1;" parent="1" vertex="1">
          <mxGeometry x="270" y="290" width="20" height="220" as="geometry" />
        </mxCell>
        <mxCell id="2XuXiQTuLc87KXWq7jhm-9" value="6 layers" style="text;html=1;align=center;verticalAlign=middle;resizable=0;points=[];autosize=1;strokeColor=none;fillColor=none;" parent="1" vertex="1">
          <mxGeometry x="200" y="390" width="60" height="20" as="geometry" />
        </mxCell>
        <mxCell id="2XuXiQTuLc87KXWq7jhm-15" value="" style="endArrow=classic;html=1;rounded=0;exitX=1;exitY=0.5;exitDx=0;exitDy=0;" parent="1" source="2XuXiQTuLc87KXWq7jhm-5" edge="1">
          <mxGeometry width="50" height="50" relative="1" as="geometry">
            <mxPoint x="400" y="360" as="sourcePoint" />
            <mxPoint x="690" y="350" as="targetPoint" />
          </mxGeometry>
        </mxCell>
        <mxCell id="2XuXiQTuLc87KXWq7jhm-16" value="&lt;table border=&quot;1&quot; width=&quot;100%&quot; cellpadding=&quot;4&quot; style=&quot;width: 100% ; height: 100% ; border-collapse: collapse&quot;&gt;&lt;tbody&gt;&lt;tr&gt;&lt;th align=&quot;center&quot;&gt;Res Block&lt;/th&gt;&lt;/tr&gt;&lt;tr&gt;&lt;td align=&quot;center&quot;&gt;Batch Norm&lt;br&gt;Leaky ReLU&lt;br&gt;Conv 1D&lt;/td&gt;&lt;/tr&gt;&lt;tr&gt;&lt;td align=&quot;center&quot;&gt;Max Pool&lt;br&gt;&lt;span class=&quot;NormalTextRun  BCX0 SCXP187910275&quot; style=&quot;margin: 0px ; padding: 0px ; vertical-align: 0.5px ; line-height: 0px ; position: relative&quot;&gt;Î± -&lt;/span&gt;&lt;span class=&quot;TextRun  BCX0 SCXP187910275&quot; lang=&quot;EN-US&quot; style=&quot;margin: 0px ; padding: 0.5px 0px 0px ; background-color: rgb(242 , 242 , 242) ; font-size: 14px ; font-family: &amp;#34;calibri&amp;#34; , &amp;#34;calibri_embeddedfont&amp;#34; , &amp;#34;calibri_msfontservice&amp;#34; , sans-serif ; line-height: 17px ; vertical-align: -0.5px&quot;&gt;&lt;span class=&quot;NormalTextRun  BCX0 SCXP187910275&quot; style=&quot;margin: 0px ; padding: 0px ; vertical-align: 0.5px ; line-height: 0px ; position: relative&quot;&gt;FMS&lt;/span&gt;&lt;/span&gt;&lt;br&gt;&lt;/td&gt;&lt;/tr&gt;&lt;/tbody&gt;&lt;/table&gt;" style="text;html=1;strokeColor=none;fillColor=none;overflow=fill;" parent="1" vertex="1">
          <mxGeometry x="690" y="295" width="160" height="140" as="geometry" />
        </mxCell>
        <mxCell id="2XuXiQTuLc87KXWq7jhm-17" value="" style="endArrow=classic;html=1;rounded=0;exitX=1;exitY=0.5;exitDx=0;exitDy=0;" parent="1" source="2XuXiQTuLc87KXWq7jhm-2" edge="1">
          <mxGeometry width="50" height="50" relative="1" as="geometry">
            <mxPoint x="490" y="240" as="sourcePoint" />
            <mxPoint x="560" y="240" as="targetPoint" />
          </mxGeometry>
        </mxCell>
        <mxCell id="2XuXiQTuLc87KXWq7jhm-19" value="" style="shape=image;verticalLabelPosition=bottom;labelBackgroundColor=#ffffff;verticalAlign=top;aspect=fixed;imageAspect=0;image=data:image/png,iVBORw0KGgoAAAANSUhEUgAAASUAAABsCAYAAAAsR6RnAAAgAElEQVR4Ae2dCbwVYx/HT9ttuaXcktKuIi2ESosWvEpp00YLpSRCpPKWqJBdKiR7vWTpLUspSbKk0EKWLKEi6i1Jlnh5ufN/P9957nPP3GnOmTMzz0k4z+czd+bMzJ3/zH+e+T3/57/GJNMyHMhwIMOBA4gDsQPoXv5St7Jjxw5Zu3at8WXbtm0J+fTOO+8Yp7du3TrJzc31pPnrr78apwfP3n//fU967Pz555/lm2++Mb7wLIkax9JBk2dJ1H788ce00Pz9998TkTxg9mdAKU2vomrVqnLIIYdIw4YNky4NGjSUUqUaSr16yc/jOlWqVJEyZcp43vHzzz8vsVgsKS19L9WrN5ScHH96nM81Z86c6Unz+uuvTxvN1atXe9LkfooXLy6lS5dOumRnl5bChbOlVKn4ednZ2Z7/wzXbtWvnSY+dHOMckzR5Bq7p1Xbt2pUSPe6nRInSUrRo/BmT3SP0LrnkEi+Sctddd9k06V8ml8KFC8tXX33lSTPRTm+uJDo7sz8lDmzdulWqV68uH330kViWlXTZu9eSo4/Ola1b4+chmXj9H9cF6LzavHnzpHPnzp7/577WrFmWDBgQp+c+7vxNJ77lllu8SMrYsWNl4sSJxmm2bNlSli9f7kmzSJEi8tNPP3kec+7cu1fk6KMt+fLL+F6ey6u9/vrrctxxx3kdsvdxbNWqVQmP6wNBaPIMPItX27x5s1SuXNnr0D77Zs0SOftskQSPVuD8f/3rX3LmmWcW2Kd/DB8+XK688kr5+uuvfZdZs76WgQP9z+NaNWrUEKTtIC0DSkG4leK5bdq0kUqVKqUESj/8YEnt2rny4YdxkEg3KE2fbkn37pb8/nucphOInNumQCkITROg9MMPInXqWPLRR/GXlm5QCkLTFCjdcYfIGWeIJJhhxx9eRPxAacqUKcYHmAYNGmRAqcBbSPSDN/jxxyL/+1+iMyLt79mzZ8qgtGePJdWq5cpbb8UBIt2gdNNNlpx22v4FpSA0TYDSnj0i1apZ8vbb8VeZblAKQtMUKN18s0jHjiKpqIpMgVKQASYDSvH+l3jrm29ETjpJpGVLkaeeSnxexCM1a9aUjwE+n/bttyKVKlninB0k+ni+/PLLpNO3Ll26+FBTh6+9Fj2JyG+/+Z8+YsSIpNO3SZMm+V9ERILQbNWqVeTpG3ytXNmS11+P314ivpqavgWhaQqUrrtOdedU3qUpUAoywGRAKd7/Em+de67Ic8+pSfjixSLnny+ydm3i80McmT59uq2UTgZK6ABQ1TCSV6hgCbcyfboS3hJ9PFFB6b33FI2rrxZp3lzkzTdFFixI/oBRQSkMzSigBF+feELkww9FDjnEkqVLRZ55RkkSifgaFZTC0IwKSlu2iMybJzJhgkiLFmJPU3mfyZofKN1+++3J/j3/WJABBmNJRqeUzzrXBrL1mjUip54qcuutIqecInL88QoZjjrKdXK0n1qnlAyUmEEi2CxaJJKTY8ns2SKHHy7CbSb6eKKCEgDUp4/IuHEixx4rgug/aFDyZ40KSmFoRgEl+Nq1q9hgBF/nzBE55hiR779PzNeooBSGZlRQWrhQpH9/9S7R0aNbGj48+buMCkphBpgMKCV6JwxlWB0mTlS6pAsvFLu30puYziWxvCS6ZLL9c+bMEVwCklnfUDJ36mTJAw9YkpOTK3fcYUmRIpbs3GnZfkEAk3uJan178klL2ra15IorLGnY0JLLL7fk9NP3peOkG1XRHYZmFJ0Sr/T001HqKrCfMUMkK0vk66/TC0pBaUYFJTQP//iHyD//KdKokcgVV4h07qwmAIn6ZlRQCjPAZEAp0dtANKhRQ8TpIPfYYyKTJ6t5TALzc6LLpbLfT6eEYrJDByWolS9vyQ03iOC28p//JP54okpKc+eqDjx6tEi9eiIXXKCUpHzIiVpUSSkMzSiSEnw97TSRqVNF4CvSoB9fo0pKYWhGBSWmbki7Y8aIIOgzzqLwTvYu/UDJz/oWZoDJ6JQSfVnMiZo0ERk/Pn7G+vUi06Yp5UN8r5Gtk08+2df69uuvlpx4oiVXXmlJxYq5ctVVlsRilnz1Vfokpfvvx9JnyahRlhxxhCVDhvhb4aJKSmFoRpGUMKiixEcoRqfEGlDCET7RtDgqKIWhGRWU9HR/1CiRI44QOe88BcbJrHB+oOSnUwozwGQkJSek7N6thpHu3UUefVQE0wjAdP31zrPSsq11Ssmmbz//jNOkJZdcYknlyrkyZowlWVmW7USZLpcArCZly6ppW926lgwapKaQv/2WeAoXFZTC0IwCSv/9r5qNjxyprJpMb/BRxIkyXaAUhmZUUEInXb68iAYldIN+rgF+oOQnKYUZYDKSkoYYdEgnnyzy738ry1qFCkqjjMTUtKlIilYGfbmga+KW8GRNBko//mhJrVqWnHee8lMCnA4+2JItW9InKf3zn5aUKmXJyJFKUho4UDlR/u9/6QOlMDSjgBJe1XXrKqNq1aqWXHaZCJE5n3+ePlAKQzMqKGFBLVVK5PLLlaQEKKHgT+YaEBWUwgwwf29QQmGt2wcfxLV+F1+spm3Ins8+q8xbTjdf/T8G1wsXLrQV3cmsb999x/RCWb9q17Zk2DCRWrVEsHAkGtHdOqXPPvtM/sswLZiH54mfnxLeD9nZIiNGKJ0SHblHD5G8S3hywKlT+gGXZUcjzMTPTykMTadOiY/3O5iV1/zCTLCyHXaYyODB8NOydS38xmUsEV+9pm/OwGe/MJMwNN2g9D+HI28qYSZ0a97lpZeKHHmk6ke8S6faVPNMr92g5HxGwkz8JKUwA8zfG5Qw9WNfx+yyY4eyr/OlX3klvVG5Adx2m34/aV17Td9ycy1BIlmxwpLNmy3ZtUtJLf36WdKgQa6ce64lTZpY8uqrlvz8c64sWIDEZIlzauW2vv373/+WqpUr28DkFfuG3grJa/lydZ3evS056CBLLrjAkkaNlE6pRw9Lvv9e3dPrrysvb2f4iXP6tmjRIrmceVFe84p9M0HTKSkRzFm7Vq18YEoESr/8onyRmKUfdJCKBzvySJ5RpGFDEeJ74acXAHuBUq08SZdHTQRKUWi6Qalv376ChE1LBEpIQfr+BwwQKV1a5KKLRBo0UCAMKBEWiF7JC5zcoDSgb1+5/957bZqAkp9OKcwA8/fTKfGWABrewFtviRQqJDJ2rM1k21ZapYqS21Eo4GGGR91+aNddd50cdthh8u67H+cHhD7yiDLb4kzeqpXyEaJT9eyJqsuSfv3UjBMP3a5dLaleXeShh0TAACwqjMbvvac8unE5qFmxoh3VTeT3qS1byqOPPiqdOnXJm6aIvPaaEhZR9DKSnnOOSKdO6FlUB8YLAmkClRvnMNtt21ZZA7FcgeN84OefP0LosCOGDZPGeVkD/smcSGD1WLnqqknGaTZr1kpmz54tHdu0kRaNGtnP2ax+fRuY3KD02Wcib7yhFL1Y2tguWVL5YzVubNnBqq1bK0fDZ5/FJULk00+V46juChqUSFHS8aSTpEvr1jbNksWKyaeffroPKJmgqUFp6tSpwsJ7PLxKFRuY3KCEOwPj7cMPK8+WV19VUzV0SkOHijRuLDb4EgMH+E6Zoqxx77xTsMtrUBozYoT0PPXU/P4zb+5c+x27JSUTA8zfS1LiS2XB7IAX4saN6m3wNS9bpo6hO8I0QUjJK6/oPrhf1rgENG/+se2jCRCdcIJydgMY6tdXGAlA4FvSpo0l3bqJvRx9tPKv4X/w7cTZsU0b5evZurUCpWnTpslpRYvKu7GYbIrFpH6RItKkcWMpX76L7RuK9QnVGWumaHyU1aqpERV2AIDcD9Hl0K9ZUzkYQhuBk3vk48W/tFq1EdKjRw85rHBhmRaLyaxYTGoVLy5XXHqpDUq1ak0yTrNs2VZy5513SnaRIrIgFpOlsZgMKlZMjqheXUiFcccdPwluDagMe/VSfkknnqgkB6SFgw9WYNuihWUfRwEMf0uWtKRqVRGc+uEPjpUYYIcOVVkCyG8EOECT5c5ChaRQLCZ8WGPGrDJK8+qrf7KfBXqXZmXJiCJFpE9WljRr2NDOJ1W2bGV7aobWgen2oYeqqRrqUaaj9Am8XBhseJaBAxVQMfYCVgxEffsq5Td2HqIHevZUWQJqHnKIjI/F5IlYTBbGYvYzdujQQW655XbjAwwpef4+Ht0M7w88UBCYkJhQymhg2ro1ueYvTfA0ePBgO/XE+vUf2+L2rl0iLHQcPghml/iW4GcCCHToYNkAAEjQ6ZYutexQCToi/4d+Hqll06Y4KNGZ/3HQQXJa4cJSoWRJufqqq6Rjxy7ClIL/gQYSD0CD7xPevlwPMEI64yPGnxRfKcR/aODrApBhuEQyQ5Vz0UUKlCoVLiy3xmJyXywmNYoXl6vGjLFB6corJxmn2aKFAiWecXiJEnJR4cJyQqlScsGgQXa6j1tv/ckGFDw8+NiQFngWxiCeF894gOjkky17DbADykyRr7pKpFw5BWiE7SFVXH11QVCC5rCiRaVb8eLSrlkzady4sVx22SqjNO+/Pw5K82MxYbkrDwRfeeUVKVOmsgBIPCNdHedIBon77lNOk4Arz8pzA0QMNDwzQHXXXQqoMTZzPtL3nXfCpzgo9Y3F5LpYTG4jT1RWlj3w1Klzu/EBJjv77wBKTNmIXeOLQa4l0MkpMWlg4q2x7KcpmxPfvHRKKFlfftmSl15Sli7cAbp1s/KkpFxp3tySoUOVBW7TplzZvt2SRx4paBXTOqUtW7bI4sWLZeDAgfbIvuyFF2xFtzuf0hdfWDJzprrGtddaUrMmH6klnTtbctJJlpxxhvJTOuUUdc4bbyj9E/eqF3RKF110kYwaMUKOb9zYpgcg0bx0SiZoolNCR0biMXL8AE6XgDyCeb9gPiWmmViguCV0xUgISBFMR/FWR+JjIChbVuTdd9HpqemzQ68sevpGVkZo6oRnxzdoYOvr3DolEzT19K1bhw7S45RT7GfkOTdu3OipU3r8cTWgcN88K+mWeE6m36yRGNu3V1ITfAKI3GEnevp25/TpMn7cuHyab7zxhj19u/HG240PMPXr/9VBCUDq3Vtp9+A81iAiS4kQdAMTosXOnXZH3t9/SOdKkrdk1je8jvmYkFzOOgufJaU/Qg22e7d3MjK39e25556TZUxVU7C+4WyHZIaClPAEOjDTNKQIYqgSNaf1DUX3WBx/8pqf9S0sTaf1DUU3wKibG5TYj1THAljQHZjSoLdDiY+0gOc6ls5t2zA2qMgiztVNg5L+zbpfv375lk03KHE8Kk0NSppmg6OOyk8D7NYpcQ5df/t2dTYSMNNwdEhIR0hQuAMQ6sI0lYbC22G0tPdpUFJniFx4wQWycuVK+6eX9c3EAPPX1ilpQAL+nT0KztMTr7kmDkxocP/A9t577/lmnhw2TEkxxxxjybnn5toJyYh/w2L03/+azzz5yiuWtG9vyaWXWtK6tYp5Y3pz9dWWXHxxXDLSEpJeO61v2jqkWeslKen/Yx2WptP65s4p7QVK+n5YIzEwRgFG/ftbtv6OKRvTGqyMXs0LlH6jv+U1L1DSx1iHoekGpf8wx85rXqCkj7F+8kmlJkWdiu6RAY5pOJbGZF3fDUrO9+lnfQs7wPx1rW9egLRhgzL385bcwIQu6Q9siaZvzg/26actWbnSkqOOsmT48FzB0W/JEktmzEiP8yTTwTvvtGT8eEuaNUMBbAmK4HXr1LTSeW/ObScouVnqB0phaTpByU3TD5SQPrFaEqSKYyq+X3iJAFK4V3g1L1BynucHSmFoukHJSc8PlEh2gYECZT82HKQkpqmkviHMM1Fzg5LzPC9JydkPwg4wf11JSU/TkMOZpgFIaDOxe+sGMPF20DPt5/bFF18UoDhkyBBb0Z3Mo5sXjt8SKVtHjcq147TwJ2J/usJMuPYNN1hy7LEqR/dxxyWWkHSHjAJK+hpBaUYBJcz9eG+jW8JLHksVM1y6DPfj1aKCUhiaUUCJqRkeMCjAAVuU3agB6PoOgWufR40CSmEHmL8uKMFeLQ1hZnAD0j7s3387du/eLRUqVMh37tOU/bIE6PMYyQnGxYz90ktqb6KPx61T0tdgnYpHN+fh1oUUgd4YPZZfc+qU3Of66ZT0+UFpOnVK+hp67ScpcR7Og7VroxC2bPO4TgKRiK9RQSkMzSigpHmBXxY+SujQWPu1KKAUdoD5a4MSHNfAhMkBiekPbmvWrLFHX3fNsGuvvdZ2nvSTlHjRNWogveTacW9Y59iXTknp9tuVN/eIEZagz9KdLdHahKQUlGYUSUl3CXyvJk5MDexNgBJ0g9A0AUq4MzDAELiQygDjB0p+Ht08Y9AB5q+lU9L+9LqX6bUGJt7EHwhMxCrVq1dPMM+7m9YpJbO+6f9B6Js2zbL9k/DUpQEQXs2EpITegVEVv5dUctuZkJSC0owqKcE7AIIA0pycuN9sIr6aBKVUaZoAJe2HRvwb2TX9mh8ouT26vQaqoAPMX0tSwvkCf36n3khzXQOTwzytD+2PNaZxd3Cqk+6zzz7rG5Crz69TBwc3y3Zs1EnuE308JkAJJzr0EOgjcLrzayZAKShNE6AE2GPNxBkV3yRaIr6aAqUgNE2AEmCPmweRVakMMH6glIqkFHSA+WtJSlTZK1ZMJR/2+nIAphSqhXj9a9R9Q4cOtctVJ7qOTl2SiqSEZ/fjj6vwB/LO0RJ9PCZA6e67lTf3TTcpX6VEz6D3mwCloDRNgFLduiLk/yGUh3g4WiK+mgKlIDRNgBKe2wwweMPgl+XXTIBS0AHmrwVKDG/4JPGm/2ATv37ZTzzxhNxBhnafpqdvqeiU0OssXpwrpC/59NP065TuvVd5cTNlxGmTDzXZYkKnFJSmCZ0S8YVz55KrCk9u9cLSDUpBaJoAJcCeCQUKb3yV/JoJUAo6wPw1QAmX2+efF0HBgm6F8HrcVwEmVz4fv5dg8jg5fchf9KpW/CS5eCrpcDUQtGxpyRtv5EqDBpbs2JF+UHr4YUv69LFsKeKii5IDEvdoApSC0jQBSuhY8PvCCocWgJZuUApC0wQoEdeGRzdTKoJv/ZofKKWiUwo6wPz5dUr47iOHkq+DOAj851F4A0wMefSwPyB0hFCHQw89VJxevn4dAJeAVCQlzNZbt+bKhRfGK9am0/q2Zo0l11+vvK0ffHD/gFJQmiZAiYDj1aup2hJ3XUs3KAWhaQKU+CzOOkvFpTsicRJ2TROgFHSA+fOBElIRuiHdCPNmooyERL4G4gO0lhKFix7y9Pn7ce3MfuhH9oYbbpCDDjpIXnrpJSG7X7Ll88+3Cc6XX3wRPw8Q9Pqf1atXS4kSJYTQi08++UQef/xxeTOvAiGBqy1atPD8P/e1Nm/+SrZuZYnTdJ+jf5955plyAU6rInbVWmhy7Pvvv5euXbvKsGHDjNM86qij5JFHHhFcLaBHMjvahg0bpFChQsIH7deIrqcIA6mfdDL9ZKDEIIJFFWkYmgSp0pYsWSIcW+UsYZyAeBCaPANpWGgvv/yyTZP3jgGFYqaVibj1aThQkiUBWxC5lvwaoHT66afbz8kzziUNgYh88MEHcuqpp/pmnoR/QQeYPx8owRSSBhE8S8NOjUyqAQlwwruQPBx/onb//ffb1Uxw9MvJyZHixYtLVlaWlCtXTsqUKWNvlyxZ0j7GmmOAWNmyZe1tzuf/srOz7d+lS5eWgw8+2O7EOGrysS5dulQAjLuZ5AuBtgPsqG+uoa8DgHGdUqVK2deBNteBHgvHuDbb0HLfK/dE5PogkjIJCtVrbJpvv/22oHQ/4YQT7OPue+W3pgE9/czcB8e4L44nuleAh0R2fKA849nkdBGR+fPn2/T4mOFRsiUrS/GctT4PmnrbueYZK1asKORTIsAZmmQKoI0ZM8Y+xjnO//HaDkKTZ+A5aZMnT7Zprl27VrZv3y7du3e3n9OLhnNfnB7vM/6cznOc2zwDubEARJ6RoGPa008/bbu3cPyII47wXerW9T9HX4drpmLwsW8k70/M+WO/bwM6EybEgYlYANIGMjJzDLAiXgCJKtMyHBCRX375xZbSkNRMLsmm5hwzSUtfi2dJ1Mi9rs8zuUY14NW4l3feecf4QubOoO2PBSXu1g1MJI4hfwcpBPHye/HFoM+UOT/DgQwH/sQc2L+gRLQ/ZRjIdv7ggyIkEUYKcgMTqQ8JBEPxnWkZDmQ48LfiwP4FJURHksAwRSOKEM8vUgKSZJiwEaZqTh3T3+pVZB42w4EMB+DA/gUlKGpgIisV5n7S1779Nu63Kkk0WasCeGoz38aKgGOjyQXlXyJrDR7bX3/9tfElmV5j7969xunxDM56Y3/0J4FeIx18TWatw2iQDpq8r0wLx4H9D0q6MBUSkwamcPdu/xcR+Vi5Onbs6Ls0bNhJqlXr7Hse18JqoFPNOm8PixDHsFr5LcWLl5Fixcr4nsd1uOa5JJP2aIBVumh20/lTXXRnzZplm8LxyDW5HHPMMfKttra6aOKflNpzlpHChctIdrY/b7G4FS1a1EUp/pMCnqnRLC1B36c7ayZUMb/XqVPHKE95P7Vq1ZLXvOJE44/6p9naf6CEnojk0ESg4hfvlphCsmzChAkyevTopKESSDwskyZZ0qlTwQKP+ph73bZtW9tHxX1bO3futM337v3u36jJiEkib7Ijs6r7tPzfSHmJKtxiieHD8WtBaeKDQ0iMV8MNALPx8uXLfZfRo1+Vzp1Xyosv+p+LiRp/I6929NFHywrtl+Z1Qt4+ulKVKpYtYOvTeH9eDQCEZqLWunVrIYDarwXlLe/LndIGGvgH1a1b15en8D0IX/FRSyWg1u85D4Tj/j3d1F0iBeiXjzcbCm5S5SExJctc70MfUMKXJFEDEOhQLKR4IENfKh4G7dq1CwVKPJqmh+Me6cNToRcFlMLSTAZKSG0USXSDtdfvIGBfu3btUKAET7U1m+yKZctaBQyz6QKlsLxNBkoMPl58dO8LwlccXDOglAgFEu0nC5UzsHbePJX+kJ7m3J/o/xPsTyYpUaZ5wABLvvxSlcAm1otUsFT+pDQ1yft//tk71CKMpMSjjBqlImH4iIgnJrUEajM6N+lC2PZqYUEpCk0/UKLoZaIWFuzDghLO/DfcoO6G7lKhgmUn0GfPM8+QHta8pBSFt36gZJqvUUEJqU5HByS6t/21P72SEl9mXn10ufJKVY2RN03DR57AnYgtGSj99JNlj6jPP69AifiyE06gWogl331HuhBLVq0yB0ro7Ukqpgv0AkrNmil9PrHE1Mhct877gcOCUhSafqCUSFKKAvZhQQkhG+d+ug8AVa8edfEULzHcTp5sHpSi8NYPlNxSEb+j8DUqKBGn2bRpU1uC8+6h+29v+kAJZSbBtdnZSmRAwY1iGyULoSRkGEshnsiPFclAifppiPlPPaUkI6pbUIQR6YiaVoccYsn8+eZAiSqzZcrgtq8kI/JgU2WCzv3VV6r67VNPeT9RWFCKQjMsKEUB+7CgREQSuZGQNElFQpkoDLaMe5QCHDKE97gvb6PolKLwNgwoReFrWFDC+kp+d0DxQGnmQMn5UMxV0PISSPnzz6pqHjWrkfnnz1dy+MaNRniQTKcECXCRWurodQjhAhe5JSQW8t/o0dZ9M2F0Sps3q7SkFO3lUVGjUZYbenxI6Pi5F68WFpSi0AwLSlHAPgwo0bVmzlT6QHhJ/cTu3SkZpSQn3un555sHpSi8DQNKUfgaFpS++eYbad++fUpBzl79Nh37zIESRaiY3NMIXaYkqTb9ggiEjeAwCWAZbIASZaW9GqmPqAhLXjZGWOIPqTmAo/gLLyiAQmjzaieeeGJCRTcBpl6NwHLK3dxzjwJB9PdUfWIGi4N6u3bKkd3rf4ngDmN9i0ITX6xE1jcU3Yl0SlHA3g+UqPrrboDSpEnq/WEbId3W4MGWkFSC6RzS6GWXMf1x/ycS6le+1jcGBK8Whbd+oORFLwpfg4ISktEtt9wizoKUXvf0R+wzB0rbtilr2tKl6oukpjCIoHsKwMTkn6JcBlsySQmh7MILRa6+mkBOJeaDi9wqxzD8kRbWq4WRlBYsYMRWddwBQUpiA4QkOWBKBztI9u7VHn300VCgFIUmucaTgRLR614tCtjjT5PMJQBTuLsBSkQnMR3+5BNVIXbUKEu4PSRS8hhdcQWuHu7/xOiw0xeUnkowp47C22Sg1AHRzqNF4evgwYMDWd8IzB05cqTNH49b+UN3RQMlgIbJPrL1rl3q66tXT5Uo5RjARB1hDUxpeFS3Tgkl9p49Sk9EErORI6lAq/RI1JZne+NGS+bMseyOTBlrRg0KQ/7yi9rmd6rWNz4Y/XiUNsbtAFcA9EgIh4AUitnHHlP7tfcC/8eiW5DpmymaftO3RJJSFLD3k5ScfkrwVfOJ7CUMMFSHJXfQdddZdjVYpnPkAsSyqoPunXwNqlMyxdtkoJRIIo7C1yCS0rhx44T0OgdqCw9KaAFRVjNHQXlCbWQaYgjAROJ/DUzUNU5Tc4PS7NmW9O6twOXuuy278/brZ8nevZaccYYlY8dasn69JQ89ZMmUKZZwDBB64AHlXMl2EFBCv0EtLBrTNhJ9oT5Drw8o4SLw/vuKPYzs2mmbyiXabYv/DQJKpmj6gZLT+mYK7IOAErMqNAKAE92MNFskjWDKTQlyEpQyFYfPZ59t2TynWDFlu3ULCkqmeOsHSrqfmeJrKqCEUptUIp9//rmdD0vz6EBbhwclvi79NfJU9By0udu37wtMaAzT1JyghEmVEbNRIwUsJMcHbHr1Ui4AZ55pyTXXWPLaa5bcc4+Sljp2VOcOGmTJySfTsVMHJUZVVGkNGqiHQ3fFgjWIj4U16aLQTfAhkRihSxc1+qMGI7+y9ltKFZRM0gwCSqbAPlVQojuhj0PQRg05ZIgIFY2bCesAACAASURBVLUWLlTJSR95xLLTbn3zjZJGu3Wz7BTuABIpcLUnShBQMsnbVEHJFF9TASUylzbHm/cAb+FB6dBD1RyFB3z5ZfVlUgGwfHklAiAxodlNc7J/p04J8R2s7NRJZdklmmXJEqV8JjSB0RYdEkpu/ALxJ2J6T6dnpokSnE5Oc+qUHnvsMdmcB6zOMBN0GOilWrdWQiEY/eSTCozQ8ZPM/frrSSOrPiQ+KOjxwaEQZ1tnA3aDklO34gwzMUnTDUpOmk6PbpNg7wQldEsLUNzkNWeYCdNf3gegBHCTgxpewl/e3TPPWLZEinc3CUsBJYT3cePU+9eZk92g5HxGyDrDTEzy1glKTpqEmWiPbpN8TQWUeF4ktAO9hQelXr3Ul8xwVrWq0i3xwAQFEulP2w8MAJTOPnuM/PijJd9+qzy4L77YkvffV1M11gMHWrJzpyVIQ4j9Cxcqienddy3p2VM5UyIxXX65JRs2qNi4Jk3ayezZs20vV6qT0MkAJg1KPBqjMboOpmvo7/GCQCoC/FCxsR8LEQalG28UIZ02khKzWoATAP3yS8Wmxx4rGPsGvTl5iZc1KJmmuXhxwdg3aC4DsYV7i1vfTII9oESdNbyHSeULzQV5VltA6eWXV9jdBr6gj0NCYkBhqoYahCndrbcyDlo26G/apDxMmIZjmcOQgZ8uLnDwa9eugrFvLZo0kQ4nn2w/I38ApQULnrXPNfk+eS4d+1azalUZiMUjL/ZN65RM8jVVUMp/8AN4IzwokZqB/NDokpxpGhYtUmC1nx4aUGrY8Aq7QsfWrYj0qlrH8uVqGydJfFi2b1drqtHOm2cJVUSos3buufGpHTqoJ5+0ZOlSyj23la6nnWZ/NA1Ll5aGhQpJzUMOkTVr1kjRogfZ9QywqgE86JHQEaHkZoTmQ2IEZ40NAOMOHwoZWeibdH6kAIAKIZMPsEWLubZ0RmcuVayYTbdooULy1Pz5okGJWFWTNNu0eT4/z7amWaFkSXlx2TIblEaNmmYc7KtWrW3XzuM5G5UuLUcVKSKHlixpAxOg1K7d67YPGdlsmPoiiaInQp+EUIVfGRLT2rXoDpXGgBJDl1xi2Q6qWDhJXorRgcI3vXrtsa1vFXNybJ5Cl2UEiJcHSq1aLTH+PqFxZM2aBWhOHDfODsht06arcb726pWJfSsIOXxVNHoSZZBWry54PI2/AKXhw0dI377Kc5ta7uiRAB50SP/5jyVITljcsLRhdWMh5OTzz6lrZsknnygAA8huvFEBVdOmraVr+/ZyZSwm22Ix+SYWk3KFC8vggQOlVKky9rQCFRrWNMz8YDHOmXhuE17Ch4S1CH0/HwmAxQyQ9ON8LIAZhkt0TSjAL7hgtg1Kh2dny95YzF6W5H1A7777rt25mcqYpDly5FM2KFUoXjyf5iN5NMkQ0KzZdONgX6qUAqVW2dk2X3fFYtK3cGGpedhh0qhRI7nttuds8//ixap0ELq3jz5S7gCYzB94QMUQItHicsFgQI7/iROt/AEBiRS/Jpwrp0zZaoPSoWXKyMd5fN2Z94wzZ860JaXJkx83/j4BpbqVKsmaPJqfazAcMUKqVetqnK/Vq2dAKQ4ziATol2rUEEGnhJfgfmyAEqlLqGVGWpLnnrNk0SJVbJHfeMkCRpSGGTfOkqeftgRXAaw1BOridEfRwvHjVTHIdu0sOecc5RLQt3dvKVakSP5o1/O00+xyQlT5AFQYsVFeM6WYM0cJiEwh0H9gcUMJDvAwaiM1EUiKuwBmbQySAAz+N0hPDz30RL6kdESZMjbNyllZcs348fmSkmma8+cvyZeUNM2aJUvKnVOn2pLStdfeaBzsq1U7XO69994CfK1TubLt5Iik9MorK2wJCOkTyRAdEWGS8Ah+IRWNHYtESoVfEdziENiZlgNa+DLBZwYGpKbPPlPTtxLFiknF4sWlQrFicnChQnJqy5Z29RKmbwsXPmv8fQJKh1WoIGWhV7SoHFy4sPQ47TS7Skv79h2N87VPn/MC+Sntx080MKnw0zcnKZQkiAGGvbWdJBJtA0qkLtmyRekTsHqtXascJlEko/xktKXzovNhPWMGYr0yEtJ5GWmnTFEKaBTh/L9T0T1+/HipW6uWXYxS65SIoKFwL2nGwWGUr9BDwc1UA9UaTpuY/e+9Vym9kaI4Bohdd50KPyH7L+eh6KYmF+VoWOjUozlZsCeofEqmaaLo5qN00rwDJVieTgmXANNg71R0v/XWW/Zz4nVN04pupEdqRmDIJTgAgwRTNa0/QupkQEF3h1MqrhgMNITwMCtDV4PuDvZpRfemTZvs5yxbpoyULlXKBiRoakW3ad7y/jZu3Jj/LuvUqGH3H63oNs3XYcMykpLdiQ6EP1pSwqpAOhLWjKJIO/groQAfOtSSxx/Hrd6SFSvUGkdKpnYcQ4LCNKt9R1g7nSfXrVuXXx1XgxIWIQAOHH7vPaWI7dxZuQIwbUP/oS1vjO740vCRMX0D+PLKitlTEwyUbuubrjsGjzUomabptr45aWpFt2mwd4ISteM0IPGcGpRwiATosVKi3AakmBozJUZyAngwXGBkQEJlSseUnNQmDEAouAEwBiQNSrqvPvjgg/mAxD4NSqZ5CyhpRTeSoU51rEHJNF8zim79hg+AtROUNKgwZTvlFKUnwksbgJoxQ1neyLtz1VVK3/TNN8qvCWX3Cy8kBiXnY2pQcu5jutCzp5ou4DTJVA39P9IX1jjAiePokpheMIVjWudsblByHtOg5NxngqYblJzXd7oEmAR7Jyg56bGtQcm5HwkGIwFmfwQqprtY2LC0Yr1ESsJIOXcu+kEFWoCSbm5Q0vv1WoOS/s3aBG+doOS8tgYl+qpJvmZAycnlP3jbC5RITdKihSWjR6sX378/o6jSM33wgVJu4yZATiXEaPRIH30UHpSQdMgqy3SBmSy6DKZz6DqY3uH0h04E0za6JHyU8Bx2tqCgZIJmqqBkEuyDghIeCoAQTqmoL9lGwY2TKxIT0zs8CsiZhV9Y3uwzn7VhQMkEb1MBJZN8zYBS/iv/4ze0Tsl5JwADydXQPTBqoiBGOYqoj1iP2E+HRqpBD1GhgpJinNdw6pSc+70kJRz9cJTFEseUA1BCf4V3MW4ATOcY1dF38dFQWYr7cLagoGSCZlBQMgH2QUFJ6feUHg4jAoCOOwXZQ9EHXnWVcqt45x0Gon1Tw4QBJRO8DQJKJviaASXn15SmbebgnxAS7tMAJXfqEoABpTMiPw09A2I/Iyp6HZSg7EOPgO6iYkWlHHWSSpa6BOubs+EJDCgxfQAEASAAClcAnCoZwQEmdCX4LJUuraQm5zWCgpIJmn6g5A7INQH2fqD0KiY0R0P3Uq2aCi9B0sRAgb8u3tBIprzX9evxxLfsYALSmjjb7t27fbMELMTV3tFM8NYPlBzkbOk66iCaASUnR9O0TZwO5Xj8mpekBDCg/NSFMXSQLOEehHUQFqKlKPQ8+BIBZM6WTFJy51Pif6lURA5uGtdGoY3vEs6OxLjx8fBRY5XDlYttZ3vooYcCpS4xQXP+/PmBUpeYAHu/1CXuyiK8L/iFhzbbuAFgNGDqw1SYaTFSJ5IT6XIxOjgbwad+1UxIG+NsJnibDJTcqUtM8DVo6hLn8x5o22ZcAgw+FRKSTl9Bzhe/5qVTosMykuo5O9kAyFSIrxKK78aNlYJbH/daO61vznvwmr4BggCerqEJODGFw1sb/UTLlnEQxPkd31L+x9mCSkomaAaVlEyAvZ+kpN+95g1dgGk3Uiae8EzFASbeGZY4MnsS0sP7xqiA9OtsYaZvJnibDJR0mIm+TxN8zUhKmptpWDOyHXfccfkmVD8SiUDJCTQPP2xJkybKq5u8SUcfrSqZOM9xbwcBJfc94gLAFJGUu/jMIPCh/0jWgoKS+1phaPqBkjN1ieZPVLAPCkrO50TXg/USnSD3g94O/RzTOn57tTCg5L5OGN76gZLmp15H5WsGlNxvzcBvpCKmMNqfI9VLpgJKFA4oV86SbdtUsC2pTYiR0x3Cax0FlBjZqSj16adqmtaokUq6meyZooJSGJphQMnJqzBgHwWU0PUgKeFywX3gcsHUDodVfns1E6AUhrdBQSkqXzOg5PX2I+6jjvxZZ50lJDIP0rx0Su7/J0q/bFnlTEffRaeENS5ZS6ZTciu63dfByxhdOEp1PiRACUV3shYVlMLQjApKYcA+CijpFDNYTvmIcawkwgldUzpBKQxvo4BSGL5mQCnZ1xXiGGEcz+Slrwj676lISitXqhpvTN3ovCR9IyzBOTq5t6NISuRwKldOfywqsT3K9mQtKiiFoekHSm7rm/v+w4B9FFBCv4SPEgpu3hdggaSEronfXs2EpBSGt36g5HWvel8YvmZASXMv4vr333+XXbt2CTFQxCaFaYDSqFGjhGslWnbt+l2mTv3ddvvH9X/Rot9l48bE53OdKKCEpQgzNlISjbgtLHzJWlRQCkPTD5S8dEpO8A4D9lFACdyh9gThJNwHDqjkEUS5nU5QCsNbP1By8tG9HYavGVBK9nUFOLZ06VI79ijAv+xzKrFMdIB0LKQMcTdGXmgBWomWVq3aSp06bW1zO9VCGjVqK82aJT6f6+Bm0B2vQI8GkKaDZoUKFRK6BAwaNEjq168vkyZNSriMHTtJOnacJBMnTrSXAQMmyaWXJj6fa/EciaqZQK9KlSoJ+Qqfjj66rRx3XFu737Rs2VYaNEjO1yZNmtg0Pdhq7yLMpHz58klphnmfPKeXfpQwE+iRQDDRMmPGbOnff7atY0XPevnls+WWWxKfz3Xq1KmTyRKQ6CUH3U9cV9RGQnQ+XJOLV4fS94lk9/zzzxtfcDdI1ADIdNB0BsQ6afOMV1xxhfHlhhtu8PxYoY3lNR3P+MEHHzgfrcA2z58Oml4DGoQJQiZXVZ8+fYwuvXr1kg8//LDAs/1Zfxxwfkp/VkZm7jvDgQwHzHAgA0pm+Ji5SoYDGQ4Y4kBoUEI8XbZsmfHle6JWEzRE388++8zooquUeJH87rvv7KJ99913n5hcZs2aJUw5vRouEengq59oj59YIkNB2P3JPPIxcKTjOd8mJXOCxvs03X+43l5njvoEtDO7U+dAKFCi/jiKPGpI+S3VqrWU7OxW0rSp/7mFChWSEXnZFt2PoLMUVq5cWfyWMmUOk2LFqkilSv7n8hxPUrfHo1FrPSsrK6W5f8OGfSUnZ4D06OGvK4Dm09izPVq/fv3sWC0/vsLPEiVOlDp1Wvi+g+OPPz6pspfYL+4pHcs2Sm15NHQqJUqU8L13+BCkD/EMX5NOwKPVqFHD5q1f/6HfFClSRcqVO8y3r0HvJF29x4NmZldwDoQCpZUrV9odym3KdP/GdZ4SRiTpp5yR+7j7NyboYdh8PdqLL74oLVu29L1GUJoDBgywpSAPknLTTTfZGQjc9+n+HZRmp06dEgJh7969basLNJA0nGsn3bVrc+2smZdcos5xHnP/308//SQAfqI2efJkGTJkiF0+CmV7smXs2O/k2GP/K5s2JT+PaxB8+547QjbvJs444wx5+OGHjb9PLFuJlPfVq1e3LX9OnmpeOfkXhLcvvfSSbaVMxNvM/uAcCAVKr732WkqgRCIuMkDefLNK5u988V7bJkApKE0ToBSUpglQevzxXDtx3Tnn5MpvvxUEfP2h6XUqoDSSwmo+DedFinaS9oV0IX6tbt26kUEpKG9NgFIQ3gJKRx11lB8rMscDcCCtoEQObKSkZcssmTmz4IeTLlAKStMEKAWlaQKUpk3LtfONX3BBrlCP3slPDUZ6bQqUUJ20b6/S/LpSEHl2OROgFJS3JkApCG8zoOT56iPtTCsoUZ2WfNjr16vij84Px2vbhKQUlKYJUApKMyooMV0cPTpXKL7Zv3+u/PDD/gElcmSTyO6VV1R6Wr+eZwKUgvI2KigF5W0GlPx6QfDjaQWll16y7CKBFII877yCOY7SBUpBaZoApaA0TYDSwIG5smMHJclz7ewHTn5qCUmvTUlKOLhTDoq84yr+LHmHMwFKQXlrApSC8DYsKPXo0UOeIg1ppu3DgbSCEmWN7r3XssvhkKjfrftwfkhsm5CUgtI0AUpBaUYFJQKLzz47V/bssWTChFwhP7WTlxqM9NoUKJHEn3p1lCanWq9fDj4ToBSUt1FBKShvg4IS2TB4L59++qkkc3/Z50v9G+1IKyjdcYclS5eqbI9UpCVlqfPjcW/ffvvtSa1vJ5xwQtL/53pBafbv3z+p9W3o0KHGaXbs2DGp9W3GjBk2TQ0qeq35RaL5IUNy7SyaDzyQa+vs9DHW+ny9xo/Gz/p2GXWffNojj6jAYrLLUIdNBxwn+jc/UKIemvO+vbaDvk8/UHrzzTeN8nb58uWBFN3nnXeeTCERVKYl5EDaQIm5OfokXAGob9Wnj7WPQtbdCaNKSmFoRpWUwtCMKil9/z3TYeUK8PTTuXYhRicvNRjpdSqS0nCf1JhE6N96q8p7jt8n1WndqWfdvcwPlPxcAsLw1g+UCAaGV5o3eq35F5S3qUpKP/zwg+zZs8de8PPLtMQcSCsoXXKJSkFL5wKUmG7ol++1NgFKQWmaAKWgNKOCEpU7Bg9WoLR8ea5MnVqQr/pD0+tUQMnPJQBQIjHehg2qKjBVRcibnayZAKWgvI0KSkF5myoo0bcv9Mv0l4yZf6NjRkBp82bLLnHjBBqkI/RIWIjYj2uAu+AjYLV9e1zXFASUTNEMAkqmaAYBpY8/tmTv3oIOkhgORoxQ+9avz7XLjjt5DxhR1vqXX9Q5JkAJ/REVWtAnAVBUEaE4ZLIWBJRM8TYIKJngrR8oISHdcccdtmSWLPNEMj7+3Y5FBqVNmyzp3JmRu6B1DYVhv35xsLruOktee63giP7GG5a0bm3J7Nlqf6qgZJJmqqBkkqYblIgt083p0b16da6ceiq5qAuC0qpVVPZV+7Zvz90n3/iXX+ZKx46W3HRTrl3lIwgoMTV78EERV/k1W39EhRYdNTJqlLLC6ftmTXFP8lnrKI9UQckkb92g5OSt06PbFG/9QIn8WyRgc96Hk2eZ7X05EBmURo5UYAMo0bn0iI1D31lnKSU3+0g/+/TT8ePsu/hiS1avtqRbN0t2797X+kYQrM5I6QwzMUnTDUqaHqxyhpmYpOkGJTotnZemQQlL5aBBubJhg/JFojSU5u2CBQC5AiWkIcqS62Os77knV+bNU+4CX3xhiRcokTwMSxCNMBM9fSMVK87dnToVnJ6hP6Kopo6XRlf74ov2v+f/IWc2hTipcYc05QQlAnCd1iZnmIlJ3jpBCV5gyNCAoEHJJG+TgVLPnj1lFWkrMy0QByKB0uefU79dTb/Qa/Ah6I/jxx/VMf0bQHroofhxQKtTJyVdPfGEJbfeGgcllJEvvPCC1DvySDtIFKDQoGSaphuUyufkCBYamgYl0zQBpXnz5gnWJxaCOgvFYjYwaVB67z01RWMaTCgJ01zNy1mzLFm8WIHSb7/l2u9AH2NKjBKc89E3TZxYEJSoOkw8WlaxYnJITo4NTBqUkJJI3Ys0RDns11+P9yX0R9Rb024A1G+kArBu7Ef5DbaiM6fcthOU1q9fL4dVqpQPTBqUTPMWUCJTAHy95557bN72P+MMG5g0KJnkbTJQWrduXf7zaj5l1v4ciARKQ4YoSYcP4u23Lbn66viHg+QzYED896uvWnaslv540IsgKfEbKQCpaswYFZA7oEcPKVO4sLQpU0baxGJSvUIFO3izWbPmYprm6acPsNO9Njj8cGlat25+pDwfEaA0dOiFxmmeeGInISc3YDS0ZEk5LytLehctKo0OP1y6desmd911n5xzDkYCBTxIPoTqaN5RXHPVKnUM/REDgw41YY3zHzFjv/+ea9/7ihXxgNxKOTlySFaWVCleXMoVKiSnt2tnP/9ll42UefNU/mu6Ddt33x3vQEhI6JF0I5n+XXfpX6ogJJVraRs3qtpsderUtVO0Nq1XT6pXrGg/b4tGjewPFVC6556HjPO2XLnyQuVfzdsBRYpI+1KlpE+XLlKtWjV54423jfJ25sxM7Fu8F5jZCg1KhQuXkOnT43okRmYU24zsfDwotbGc6A/pgw8K/n7uOcv+f32caUr9+nmg1L27jIvF5KNYTLbEYlKsUCEZ0K+fHHxwc+M0q1TpL+PGjbM/1NWxmLDcl5fGY+zYsVKr1gXGaVasGAel52IxYXkyj+Ypp5wixxxzry1VauvZCy/kFuDV2LGWbNgQByWmzii24SXWI+0uwP9/9hkSaRyUqpcvL0vy+LohjybpUjp3vlCwqO3ZozrW5s0q8JZpGI0QE+qt6bZmjdgVavVvhEscK2lITVOniuTk1BV42KpoUXk1FpN1sZh0KVpUGterZ4Pvscc+aJy3xYopUMopWtTmK896Q5Eikl2ihJ3/u127t4zytkWLDCjpPmBqHRqUyIWjAYX13r3M3638OKwXXrDkxhvjoMTHQmkj/T+33WbJs8/Gf7N/ypRptvPk2Msvl0ply+ZLLcMHD7YTgjVtWjB1iQma/foNsEHJzotTtqw0zMqSI4sXF2giKQ0ZcnH+PZt6zo4dO8ncuXPllFat5LTmzfOfk+wLTN+mT59l09SgtGVLbr5UyT0AQjt2xEEJ8P/kE8XLtWuRWOPHOP/773/Od548sUkTqVC6dD7NqbfeauuUWra83AYeDUJUnWU6plOoAzpM6XTbulXknHP0L5HZs9Wi96CDqlxZgVJWoUJyVunS0r9IEalVsqRAE0lpxoxHjPOW6RtT/VOaN8/nbZ3Kle3c2EzfVqwo6KcUlbfLlr0cyHlS8yezTswBY6CELoOpFfFYfAhz5hTUIeHN3bWrOsa5TN0YxTlXL27r28jLLpNT27a1j2udkj6XtQma6JQw2eKZywI49c2bh2idkmmabkV386ZNhXJHNK1TUs+nwOXXX+N6I56ZHFXs0+dMmBDPV0VYxhNPxI9xjpei+6TWrWXUpZfaNLVOydlN0C9RjVbXBp0/X+TOO+NnoGPq2lX9BsjwYaJMubOhU1q4cKHMmTNHRo8ebfN2ep43s9YpmeatW9FdOjvbBiTuS+uUNN9YR+VtMp2SkxeZ7dQ5YAyUeMFXXBH/OGbMsGTJkjjgMK3r3VsBCe4CTPWQnpyd0g1KKGQ5TvMCJRM03Yru6/QcxKHodt6jCZpuUNqK2JHXvEAJiQkpFMkQyxE6JC1FsWYajXsF94Z0+uab/qDkrLbhBUqwnbxJTONoWNac8aOEmIDdnIdHA7FwO3bkPUTeyqnofuedd2T69On5J3iBkgneOkEJYqRQ1s0LlKLyNgNKmrvm1kZBiZxJc+eqj2PSJEveeqsg6KC83bVLeXbzkRHD5fzg3aDkfMxEoBSVphuUnDS9JCXuNypNNyg5aSYCpeHDLdmyRQHToEEFQemxx+KWz/PPt+Srr/xByUnTC5Q4TlhJngAnt9wi4rRuA0ZM74iYIM8SPkw//OC8akHrG3xztkSgFJW3blBy0kwESlF4mwElJ4fNbBsFpRdfxKyvgAYA2ratIOjg1Y3C+8svVSoTJyCxHQaUotIMA0pRaYYBpeuvVxZOTOhMfZ2S0ssv4yipjAxIo1jd4Kc+x2v65uw+iUBpwQKRGTPUmURIuIsYDx2qPLzx7Gaq5/ABtf/JKSk56bGdCJSi8jYMKEXhbQaU3G82+m+joITFbdQoPgbL9kTWZmoNPuPHM7WwZN06Um4UBKywoBSVZhhQikozDCg9/LAlzzyjgIlpsgYc1vjdYJEj2ZtbioKvYUGJvEkTJqgp2umn7ysJjRmj/JGogci2u4UBpai8DQNKUXibASX3W4/+2ygoEWGNQyQ6I0ZsDUZ6jfPk4sWW3HefJY8+uu9xP0nJK3VJVJp+qUvOP//8fZ4jKk0/ULr77rsLSDoADyE611xj2Slw77qrICghkQJUH35oCd7RTsCC96mkLrkIBZKr7dql9Eboj7p0UeDkPAU/peXLlRPlffc5j6htP1DySl0Slbd+oLR69WqjvA2aumRfLmX2uDlgFJSQkDD7E9owbNi+oINoPnmyJddeG3e61IDF2g+UvKqZRKUZRlKKStMPlAgBgR9OcCFgFWkIb+5FiwoeQ0IiC8OKFcr3y/l/XCcVSckrnxLTsW7dVCzbeee5u47SN02bRpjKvrFynO0HSl6pS6Ly1g+UvFKXROFtRlLat19E3WMUlPgAmL7dfrv6gPjtXPClQRHbo4eKdXMeYzsMKPF/UWiGAaWoNMOAEpa3M85QkhA5qpzAg2UTdwssb+iXnMe411RASce+OTsUumni2PBBIv2tu5HG5PzzlT7JK2NAGFCKytswoBSFtxlQcveK6L+NgxJ+Mu3aWfLUUwUBic5GPBwfDx8XIyL7nEtYUIpCMywoRaEZBpTgF8YDrJa4UriBB2snGRe++mrfY2FBie71wAPKH+mxx/btbISeECuHvknHxDnPCgtKUXgbBpSi8DYDSs43bmbbOCh9952SXL79tiDgaPAhPa7bVUAfCwtKUWiGBaUoNMOAEjxasyYemuMGJcCIwGY+MPexKKC0c6fKDuAlCQFE//qXCLm7vVpYUIrC2zCgFIW3GVDyevPR9hkHJQ0wYdZhQSkMLf0/YUFJ/3+YdVhQctJyA0+yY1FAie7lcjFKuceFBSXnswTdDgtKTjpBeJsBpZS7Q8onZkDJQNluZ4dOZfvPBkop9ybXiRlQcjEk8zMlDoQGJWLEnnzySd+FNBIEn6ZybocOHaRXr152vh9CTJwLCd8aN25s5xwiIVqyZffu3bJjx46k5+j/7969u0yYMKEALU0Xi1SVKlXktttuS2m5+eabUzqPYGYqt2g6zvU//vEPge5bb70l5ONxrtnWC8fI+6TP0fud5+tjK1eutOPOnHSc2xdffLEMrxm6AwAAAPNJREFUHjw4JX7Bt507d6Z0btWqVe00Ik5aertdu3bSp0+flPpFkD5Ev1y2bJknbw866CA7Ds+LR27+pcpb3mPt2rVT+tgyJ6XGgVCgRFWGGjVqSOnSpY0u2dnZ9nUbNmwo7oVRlw5HqSCTC9esWbPmPvSgD82cnBzjC1OMevXqedKsXLmyFC1aVLKysowu8NbNU/2bPEPp4u2RRx7pSRfA4p5M96GyZctK/fr1PWmWK1dOihUrZpSvvCsvd4rUPr/MWV4cCAVKXhfK7MtwIMOBDAdMcCADSia4mLlGhgMZDhjjQAaUjLEyc6EMBzIcMMGB/wNm6AS/ciPz7gAAAABJRU5ErkJggg==;" parent="1" vertex="1">
          <mxGeometry x="570" y="170" width="293" height="108" as="geometry" />
        </mxCell>
        <mxCell id="2XuXiQTuLc87KXWq7jhm-21" value="" style="shape=image;verticalLabelPosition=bottom;labelBackgroundColor=#ffffff;verticalAlign=top;aspect=fixed;imageAspect=0;image=data:image/png,iVBORw0KGgoAAAANSUhEUgAAARAAAABYCAYAAAA9dqigAAAgAElEQVR4Ae2dCbxO1frHu3P33gZ1K8NBoqskKqeIqCSkVNxuNEmTSoNKKZKUityk65YGRJQkFQp1GxANNEmjbspwDSXRNR/O8ft/vpvn/NfZ9t7v+573PZz32OvzOWftd837WWv91rOe51lr76HYxRSIKRBToJgU2KOY+eJsMQViCsQUUAwg8SCIKRBToNgUSBtAtm7dqmz/mz9/vv79739r7dq1Wf0uxR4FccaMUSDb50JU+4OIFAPI1q0aOnSoBg8erBUrVsQAEjRK4rCkKRA1AbM9LogIMYBs3apHH300BpCg0RGHpUyBbAeJqPYHESMGkK1b9fe//70QQJYsWSL+oghZWuOCOjgO27kUKK1jIxPtCqJk2gASVGi2hZ155pkeF/LWW2/pm2++8f6y7R3i9sYU2BUUiAFEEgBy991366mnnooBZFeMwrjOrKXAbg8gn376qc444wzvb8CAARo/fnzMgWTtcI4bvrMpsNsDyOTJkwsBBCA566yzYgDZ2aMwri9rKbDbA8jo0aOLAAggghwkdjEFYgokpsBuDSCrV69Wx44dYwBJPE7iFDEFAimQNoBkQj20q8pA/nH66afv8Ddv3rxYjRs4XOLARBTYVWN5Z9Qb9O4xgMQAEjQu4rBiUmBnTORdVUcQScoEgGzYsKFYHIPLgZxyyimFnAjhu6qT0qk3qIPjsJ1LgXT6r7TnDaJkmQAQDsIlQ/wZM2YUSecCyO9///tCAHnkkUeKpEum7NKQJqiD47CdS4HSMA5Kqg1BlMx6AFm/fr1efvnlhBN+6dKlGjNmTJF0LoDsscceqlmzpgciDz74YJF0JdUhmS43qIPjsJ1LgUz3aWkqL4iSWQ8gr732mmf8lYjQs2fP1uOPP14EGJ5++ulCrgMA4Q+hKlapa9asKZI2UfmlIT6og+OwnUuB0jAOSqoNQZRMG0CCCt2ZYa+88opuuOGGhFV+8MEHat++fZF0ffv2LVThGoAceOCBQh5CubGLKRBTIJoCZQJArr766ui3lPTmm2+qTZs2RdIZgBx55JEe92EgAoA888wz+vLLLwXnkpeXVySf/diyZYsKCgrsZ+zHFNjtKJD1APL888/r5JNPTthxvXv31tlnn62NGzcWpjUAMeAwHwA56qij9Mknn3jczb333luYx32YM2eOdwkRYcuXL3ej4ueYArsFBbIeQK655hpVrlw5srPgIG655RZvu/L6668Xpo0CEMoEQDBtP/zww8VRf79jW/TDDz94wSW55cFiNnYxBUojBbIeQNi+JAIQuAM7cYvK11yyAIKK95///KcnVLW8+AYg//3vf/Xwww+7UYHPy5YtCwxPFFiS4JSo7jg+pkAUBXYrAGnWrJl3ebIR5M477/SAxbYu5rOFcTkQwv/2t7/pl19+sayebwAyduxY/eMf/ygSF/SjuEBQ3HxBbYjDYgpkkgJpA0hJqYzcawXdZ399V111lXJyciJVrqz8qGfhJFD7WhlNmzb1wg04zCccbQwXDJGPcPxVq1YV5qWMgQMHerKPhx56SOedd56wSbGyg/xk7FWC8k2cOFGbN2+OLNvNh3DX/V1an1GVH3/88UKIfcUVV+zQ5kT0TPRecIZwnsiqotLedttthSr+4vZRVPllJS4IeEotgLgdOWLEiNAB0K5dO1WsWDE0ns4zAAEIXABp1KiRTj311CIaGNIAIH/4wx880IgCkF69ehUCCOkS2Y6wDfrpp58i2+ofbN9++60eeOABTyuEANgfH/QbeU1QeGkLe+ONN3TEEUeoatWquvjii3egHwLyqMUj0fsAIPTL8OHDI+nBIsQf5bnjLlH5u1t8VgFIv379vA5l5UXOEbYC//Wvf9Vf/vKXyAESBSC//e1vdwCQJk2apAQgTHAGKpcTRQ0qBinbkag0/ji4Dwzb+OzEq6++mlTenTUJ6JOvv/46qTb534vf999/fyGAwCl8/PHHGjlyZGFfo/266KKLil2+AciQIUMiy4gBJLlvO2UVgNiKwGp6+eWX64UXXvAGAXYZXPhjA/LQQw/V/vvvX/jbwl3fBRCEnRYHB2LbFtffc8899atf/WoHDsR/5gYOhI9Scas7APLss88Wlm11mL9y5UpdeOGFhayyhSfysUdB/nLTTTclvTruLADhEGMi0Ix6Pwz7jAOBfrSbrSNbCrZhqN3r1q0bStOosokzAIG7iUobA0gZAxAGz5VXXul1OoMK+QKDikHAb3eCpAog1113XeFgCgMQA5O99trLAwZ+M8BHjRpVuDrSFgDk9ttvLwSaMAD5/vvvPXsSVtlbb721sP6oQW1xrMjUzR9boGROHkOfYcOGeRPIyikJn+1Fly5dkmqTv/7p06d7lsEugHTv3t0DdMD7888/15///Oe0AaROnTo655xzImnuBxDU/tl6IttP50z+zhoOZO7cuYWCUSYDK5VNvCAA+eMf/6jFixeHDhKXA0kFQACOAw44wBvUTODHHntM77//fmE9AIhNbvwwAIHNt3SAViqdagACUCYjEKRsaNSnTx999913KdWVSrt+/PFHYYMDl3Dttddq0aJFXr3YxSRTzpNPPrkDgEAjA2+MA3/961/rkEMO8Yz//GUyyf1h/t8AN+WlCiAsFJyTeu+99xLW4a+zLP/OGgBBuPab3/zG6zzkCwxSAASDKiYHK5XJRJhYDJKozk4HQGxAM7iRQ9AeGyQACBoEA4dkAOToo48uzG/lRPkGILSDejBui0pPHNcRNG7cWNOmTUuYNlFZYfH0A9dB2rujxmYlx2AvLI8bTlr/FoayjN6u718c2NbSF255Qc8cnqScVAEE9T7lu4tNUPm7W1jWAAhCQwOQDh06eJqSm2++WePGjROS+erVqxd+x9YAJErSDoAgJ2Ew2aAAcBJtYdxBzOBmULkAAICQ5rTTTvMmEuby+fn5OwxsOBDqz83N9fJHgZ1/UPbo0cMrm3qCAOSrr74Sf+Rje8PZHGRGbA3+9a9/7dAWf/nF+Y16tVu3bkUABGGnbQUSCVbXrVunCy64YAcACdKI8d5+AOnfv7+3rU3U9lQA5LLLLvPkLixObEuRm9hYSVTP7hJfIgASVGi6YXxaAe0IrlatWt4kbdGihSpVqqRBgwZ5v/kQNg4tDIOsZ8+e3u+gf1iikoa/66+/3kuCNuSEE04oDLf4MJ8JyTd0aQ+OicpAIz2yEtrHJGLV9zvuWLVyjznmmJRO+qKmZutCfnyM18z9/PPP3lYFLgWQ7Ny5s3f4j8lJ+mSsY62sVHy0GvXr19cll1zitYl2IaeiXkBk0qRJkcWxtULThQ1I7dq1dfDBBxe+o9HJ9RGGuo5J3rx5czco8PmJJ57w6ICQO8qxSP3pT3/yBOIcuOR9+LOxEpV3d49L2w4k0wRkYjLJAJB33nmnEEB+97vfeYOBDmZw7WwAoU4AAnkLwkP2+gCdDXTah7YkyGo0DEB4v0QOANlvv/28ehjUrL4I+AAPJioqboADeQTxTOLjjjvOS4/W5+23305URcrxd9111w4AQt1wZwAIXFOU470BkL333ttTwe+zzz4pAQjykUQAApcH4NM/cG5Rrm3btl46NGoGIC1btvTsgVI9JMn4hQvdXVypAxAMrUyNih2AcSA2UStUqOB1tnVsMhwIx/Itv60qzz33nDd4LTwZn0lCOlZQO1/j5mOipwIgQWn9Aw8AsTqgxaWXXuoBBub2EyZMEKw3oIElJ+0z+pCH9HfccYe/yLR/A5yUDddBnfbHCWYABG4syrG1Qjjt2uAYbe1dXZ/3dN1JJ52kgw46yJODueHuM+plAxBAP8oZQBuANGzY0NMA0QbGTrIO4MBuhy3l7uLSBpBM7/8YLDZ42INyEtZ+uz5sO3WbDIRBFdYWVJqWF+6GdKiJLSxZ34R8DDRXMGv599133yIqZmsPMgFLwyqNAJI48/0m8pYP/9xzzy3MSxm8LwJSfGQGTLxq1ap58gTKtnrMhwuBW3HLTPSMEBu7lbB0fEuY8tGSQBP7w2YDunK0IEgWZOXZNtTaiG+0dcPsGSCwvPgnnniiV3+UjAfuDJkVZWBV7Ob3P9NvpMPqF4G91YuPRtCfPuw3Z6LYNiKvS0ZLFFZOaQ0PAsW0ASSo0HTCkJhbB8It+DkQi8O8HWccCJMnzLkAggAWhwbAykrWZ89OWuNADjvssCJllCtXLmUOhHtaGXBwXkHODyDWVrZM/Fmb2MNbnOsT/9FHHwUVHRqGinXWrFnexPEnYnAbgFAPE9/PgcBZsAoHsfKw+PSr20aeozgQ1OfmqB8AJQ9byv/9738WVcSHA7nxxhu9dHC0UY5+ozzjQNy2odFK1rGNBEB4l93lCoZSByC2H6UTEwEItgc1atTwOj8VAMFQrTgAYgPLAMR+m8+enq2ROTu968pAAJ2XXnrJW6H4mDfyCi5zZjUNcgiOrfzi+oBBKg4A4SAhciYOorkO+YU72ZFfIC8gzLYwtBM5jTvxrQzU70Hv4Zbpj3fLWbt2bWF+8rhCZasDkGJ7aOWkAyDJnLK2ejt16uRxR9AhbEGwtGXFTxtAMs1uuYLJY489tpDDsMFgPoI0zLttH02nBbWFlQitgeXDMAkW3ZUtWFyyPhMS8ApKj2bG2mFm3u4WBitLtAMLFy4slPVQDmy95cNHVcpkCeMsguoOC0tkB+HWyzMcG6p01MH0Ae2wNLyTf7vBBEWVbVsY2sG5FuQhls98Vx7lttdfphvHFsYM+DiwaHEAr3FKVj4+9DYNDGnh1NiShR3Mi9rCILR2yw56Ri394Ycfemp6axsmB0FpszksCPRKHYCY5ad1RJTvDrowAEGOYnthymJFx0rTv9eNqscfhw0E3IM/nN9mcs9AQcYBK+sCCGmwT2CFdvO3atXKs0OwAfaf//zHE+BlAkCQkSRjAk/drN6As20TaKMrBwgCENLAibgAwkG5oCP6cF/ue9uz25cWZj4HK1lYkOXAAVk4PpyS/4Qz7TWzeEuLnRDaKoTfcIRmiMg7G4BgXu8uYOTFPMD6JMzHKtcdY+SjPuRkYXmyMTwrAMQ4Cuv4KN8ddFEAwq3tbjn2ESk3LJVnBJiuHMDNi8Usk5ABAoAw4figlZuma9euhRoCN5z9vA2sTAIIdSRrYo4dC+kRkFrb3O/khAEIaQEQwIdn7ETg8ux9zAdgrVzXj1o4GjRo4OWB40TO4ObDGnb8+PFF6gFA3LFBesADFS0yCux/2PouWLDAk6EYgBDnz8f7IMuJEgoHAQjtKklLYKPnzvRLPYBgcYgFqjtAop5dQzAAhNXeT1A4EP+goEz/TexR9QTFBZVJOrYLtvIAIPz5uRUmGipqf7mktfYDIJjGZ4IDoZ5kAYQTx/52sZqbCT0AEkY71KFue1Hn2vuYj9rZX36yvynbBTby0Rb/cX0AxN9GQILto6lsycuVlnCCBiCopdEgue1hseAkOKeiEbIGjbEgAKGcGECCIMcXZgMjEz6X/bidl8ozdgGjR4/eYcACIJiQp1JWMmkZjEHpWLGQb0APBKpBAEI+/0QgzA4MkhcAQYDnTsig+pINw+w+UR+xyiLL8JeJloLb18gPa+6PD/vNaVr/yh0lLA0rJ1E4oOS+GwCSKA/x3CPDlsgAJGxROP/8872T12xT4ICGDh3qbS/hYHg/fDPec+t1OTe3fdn67Jv63s9SJQNJB0DoOHcCWicBIG6nlvQzHBRbJvbrDDaEcNxwlky92KjY9gcAYUXMFIBQDjQB3PyTmnCEtkwm1NxBbQVEvvjii0BuLig9YYCsX8hZvnz5wPLDykgmnBvN3HdKFkAoG5ojBOY5DEAwt2fLikoXwTCCcsAEWRjbHldg67aXqwRefPHFIrItG5fZ6JcIgNBxdgenCab4TTiTwY0jjG2KxZEeh09abtxyOyDVZw6sMWERhlEPatQgm4NUyy1OekzMsWFJZUtGPQh40RhguxHEpRSnLeRhMmM7U69ePU/jw5YGmlsfwCnBxYVxVpRhd8Wm0gbuC2Hbg10I2q8oWUcq5frTtm7d2hs/3CPiGiP600X9drc3/nTEYVeCqhbBKsDBb7ZpaHn86fnNeCQf8hfen0UlaI5YH9g8YH745wjziP5CGG5XWwaVRTp3TgWV5dbjzk9Azeohnz/OK9j3L20OhI9WY8HHS6HKomK0DgxQ7AjMoIg4JOAMVNRp7CXZf+LYXyNAxJIvqCNSCcPykpOUfP8FVeKuAhCsJVEZp9J20sIuz5w509v+pJo3UXomM3t66oD27N2tD9BmJAI7NC22Wieqy+LRLt13331ev6OZqVKlSso0sbKifDRNvB/3eGA3EpW2uHHQB1DAOhrBLoZscGxwVUHAa8Z+qMLZ9nz22WfeHAEEkKdwSDBoHmAiwF0mph5mjgCMLCxwptjmYOnKnAIMuKGPuYU2Ci4RRxxcJeWwmDK/zKaHPmdxpX5smmgP6QEQ1OyUw/xFWwWIELdp0yavXP+/tAHEX2A6v4MEeKl0NudE/G5XAAiqYojPGRWEaUH746D3whCNSY1jqwF7HZSuOGFMMAYbAM7A8juAH04hzHANbggAAHySrZ9tEwPQddiWJJs/2XS0jUXLHBM12bzJpHNpgsEiW2XoyATnD2E352f8ZbHtQXaEUL2sulIFIHAN/k6I+s1qYPGof+GG/I5VyX/PRHGFqmb1anUG+RxNt/s+OLUK6rMPdtOyWgWxy+5HwmFXmQic43DzFueZ+hIdaTe6sfUKqgOTeACI28eC4v1hbN+CrINLAkAQVrouFbrdc889hTSGO/O/B785TgAYwAUEgS+cgR9YoTnaN/qxLLtSBSCwVYnYaLeDMXu3/Sdqu6DOYlvkl/z7f7tlRj0nkw/BmTnsE2iTa8pO+WxvgrQdpPc7NBlhbeIekrA4N5zJjPwhGee3maEc6oGNxSULIIAmcgK/SxdA/OpZ2sf2wHVMaATQLg2CaAV3iMDVzsIgf/KPP7go2xa4dfif0bi58h3qA3DLuksbQDItTWaf7XZ81DOD3VaNMEMyBr5r9MVgCbLBiKrH4kxKDwuLRN7CXZ9j9kYT2Fye/ZaoqB0pw83HQIUdtrzmE+6m49m2ROzBg/be/vTswa28RP67775bZBIh8+CErbUtGQDhrg44L3t/t04Ej9DI38ZkfnPimoul/Wn9diDUh+DSTcelQRzrZyxw8zvaOVTSyAagD2kp22/IyL0lbvvDnpFJ8H0iq5P6wtJma3gQGJY6AHFXeVDcVgfrGNd3AQTT67COYR9q+RBswhH4B4rFR/kGIBgIsa/1p7XDdNYOm0AugLBfx5QdwZebn+2O5XN9934PS2+rKysvVrUWHuYDOG6ZiZ4pk3byh5DQ3oN8rLRh9Vg4FqgI7tCG+euCM0FzYWlT8eEQkDe4eRBg2ic/3Lr8FquYCAAaCPA5LAi3Z0fukVVRJoDiHxdcjuSWG/XMVocxS5t4/6i02RiXFQBiN47RoQj+wu4DId4FEPcQm79zuOTFBh3Sc+KjtgaW1u8bgNh9IP549vzuZLPv1wAgHPwiPaszAISU22Wr/Yfp7B2CjvPbuQvKD5KlUI9xLsh70IJYecn4lMlZIVSW0Njeg7wIWokPkgcB4lz9GHSIzuqFPqkCCLSDbgC/H0CwXbGyXR+tkvUPciQDC7aUbC3ctAYgaBNdgSng7R4kdPMEPfPNIuhlH0ULSpPNYVkHIGhVwgAEYaULIOzxwzrH5RZYAUmXLoCgNrNzHzZQ+RwAx8j97cBS0a4p4IyEmUOjIWLSMSHDPt8ZBiCslExsymAbg7CYsjDPhnOwSYpQ1AU1f9uCfvOtX9qM3YKfi2BCITsALO298dkGAIqoAaMAhJWZ4/9uXv+q78bxDDeBypG2IqC2eOjPpA16By4Usv7hCoWgNBbmAggmAJTPh9i589XSJOtDg6gLopItpzSmywoAQSpOBzIp2NuGAQgr5JtvvlkoAzHNRxDhXQCxb+O6WyUbkIl8lwNBL24X1lg+OB3/yVBrD2BHOvd0JxMbST2Tj3stLK3ruwACawxnAQeCZgkA4X0oEzscO4zHVsraaub0bpmJnhMBjgsgyEhol8ulGI3D6kEd7HJffi2Z0dN890Yy9zg/7xgGIHB5XNREGYmuM3ABhG0hYw57i0TvEfZ+ZTU8KwCEiYkmg1WJjvADCJwD0m4mEfEmRE0VQOAWbIAm47PiMmCZwHbWhfMlSO3RDKANQosUNngAG4SnfgBhleeUaVg+9+pFuBgmA6s4ZtQ2abHhcPMjbKStrMBwEBimufGJnhMBCIJIbFTYDrJSs32k3xKVa/GoQg3goL37HNQXLoCw/bAxgawFjsfKdX3sT0xekwhA6BPqZWuKBTCgjREkC49b5u7+XCIAElRoumEMUFSdOEyv3UHF3pvJ7L+VnQtnwhzbDSsDYzUcFosW5vpBQkvi4Vj4Q7pvxlF8gIjJyv4cO4kgNbK1CXUyk9m95BgOionn3rhl6c03oEODgDAYASAOjQFWhkGOQ4W0NUiNGpTeH5bosmcEvmiykEmwhTJ6+MuJ+s27mPFVIm7QTx+zVeE9oxwCU/oukQ0M21o0Q1hkYsjHFi52yVGg1GlhQHkEimxReOZLZ+4E55IaVLZ0NPFwIAjJUuVA3G2NW76thn5VI+F8tsH98hpbFoS+rJAM8qgVii0GbXY5EEvPwLVnv8972f0lfKLBhIFReTh6DvDYxdP+MhP9jiqbvBjsYfTHc6K0YXWx2tvxeaO52w/us8uBUN6UKVM8NTpyjrDyCUduQjlBhyzdfLyLK7dhIXDj4+dtH98OgpRSCSAY95gePRkAYQ/tP/XpdroLFravRdDlDlJ7tsFsvhvOysSflc3+m7M3JhS18DA/DEDC0hPOYOZyHmQoUencOAAEbgcOxQ3P5HMqW5awelHLcqcLtObEq9Ha73Mhk1sGdTNGEmlI4ECQpaGedfP7nykPbs0fHv/eBhxGhxIBkKBCMxFmbDR7fRtQ2CTYpx4ZPDhuZWcSMwjCHFsY7n6gHNvCsJLbXtrKx4fLwIettjz2m7tCOXxkDllE0KW+Fu/32XahXkzVse3hgFWyDjAtiQ9KJVt/sunoF2xikCWFbWOQLQUdUUimDrZWqJW5+T6Rs/GWKF0cX5QCaXMgRYvL3C/rUAMQ9PMIFBHwuXtfAATVW5RjoBpHYQBCeo6nuypENApoCAwwLI/9Rm6SjgNAmNypOqxDAatkHcLcbAAQex+2EGEAAmeCkLi4DnkZnEgiZ+MtUbo4vigFSi2AMKhwBiBoOph8dLTb2ckCCAMUdtb9RgrCOC6jASD4Q1DJwSwDDHdQ87yrAARuKRVBJWbnHCjLFoccJeyqQ+Rd6TgE3CZwjyqH7WXsUqdA2gBi+6NM+0wYyuSL96wi6Or5DQfiqhkRopq8JKwNqA25NcpUw5YOcOJ+ClSzHDjDNoHr+DljAvdhHAhsNM9cVGN5i+PzTrSlOHnLeh7U2XbGxwC9cuXK3gVL6bw7AnlsR9IpI85bgkLU1DErtRxwG0jruc0bh4FPqhwI+ZBVYEPiOsqBA6F8VikGLCc57QSvcS3YU/CMsDR2JUcBNDOAN4ZpbEsB+KDj86m0wB0rqeSL0yZHgVLLgRjqw23wFTlXFZcqB0JZaExMNeyWDQfCDU2EGSfDFgBQgetg28PReyxkY+6hqFTe6JhJH27BtCvmp1O+O1bSKSfOuzUQUUo9gKDrB0DcU5Gu2XcyWxg6PwpAzJLTtQXgA0gACIJVuA8uk4kHUckDSKZpHANI5vosCEFKPYCwCgEgXLgcNLg4NGacQ1C8hYUBCFyJGQ6hgbH0nGkhjst6AbFM2D1Y2bGfuUGdiJYxgGSO1lkJIAwQrosDAIIGC2dMkgUQzNDdMhhcWJNaGDYe9gyoEMdReAMYi4v9zA3KkqZlDCCZ66usBZCgG6ds4AEgYZfxWBp8AIiTlm4YXE2iARYfqMrcAHRpv7OeE/XvzmpHWagnawEkahAAIFxyk6iDuKcB7YqbDrXq1KlTi4S58fFzdoMH/Rc1duL+Ta1/SwRAggrNdFiUKo6j8GhNknHu1f+Wnu1J7MouBaLGTtl96533ZmkLUXdGU7koJ8wBIOnaCoSVHYdnPwXsY0rZ/yal8w2yAkCiSMdR7xhAoigUx8UUKDkKZD2AcClPDCAlN0DikmMKRFEg6wGEOy92hw/4RHViHBdTYFdRIOsBZFcRrnTWm6fvXr5Hl53RRPXrN1arjr31wtc7fgc3020vWDROt3cfq4Vhp+7zZmrApffojTVW82q91a+jOg/9TPbl3E0fParOt79oCdLzt8zT052b6/iGbfXA7Lz0yopzR1IgbQCJVWGpqcJKkl6b5/ZR/Zwm6jp8iqZPm6jHrz9BFWp11YyNJdvGNWPbq1q7Mfrf1pB6NkzQxZVO0oMLtl3+vHnuPar/x1/rgA7jtYE8+Us1ok11nfbogoyo1De9301HHn6pnprxqRauCWlTWFvj8NA+CEKSGEDK0IDZMLGjKjW8T19t3j5pNn2ghy7ppheWbtInj92g+598XNe0aqKTz++rqT9sm8z5P87QoE6nq2G9Bmp1zTDN8SZcvn6cMUidTm+oeg1a6Zphc7TGo1O+lk0boMtOO171Gpyma5/6XBu2btL73eqqYdfHddd5J6n+SR308Adriw7CTdN03V/r6+7Pt2hr/nKNblddTZo30v5tRmnt1q3aOKu7jq59o6av26pN303UXRedqgb1cnVy+16a+P1m5S99Sb16jNXCLdvea9PcIerSa4KWbf5RMwZ10ukN66lBq2s0bM4abf54sC5rWFl7Vm2syx+bo42L/q2+HZurfr36annlY/pgNWVs1qdDbtXAZ57Qlc2a6pZX3tUT196lEc/erjaN6qtl13Ga/ep9uuDkY9Xg7D6a+nMMQix8QS5tAAkqNA7bRbK7ejYAAAa2SURBVBRYN0t9m+ao0rEXqc/YT/WzbSkKFujBE/dWTvNbNXLSi+rbuqoOu2mm8rZ8oQea1VarO0ZqytRJGnxRXTXqM1cbv3hAzWq30h0jp2jqpMG6qG4j9Zm7RflfPaimVRroumFT9Poz1+vYim018qflerT5XjqowRV66KU3NO6GXFW5bJI2uiTYMke9co9S99l52jSrh46peZUmPttRlZsP1vL85Rp1Tk2dOXSxCvLnaWCzw9Sy17N6Y/qreuLiWjr02qnatO45ta95mV6h0IJFGnZ2bV3w3BJ99kAz1W51h0ZOmapJgy9S3UZ99PG8Kep20oE65vKHNe6d19Tr2ErKvWKQXnp1nO49o5pqd3tPeQWLNeiUg3Roq1s04pW39dlnD6npXhXVqNMAjX3pLjUt92dVP+M2DZswTl2Py9ElE4u8jftmu/1zDCBlbQhs+VEfPN1L7epVUPncqzV2Qb607gVdWKWpBn67DVE2TrhYlduM1E+vdlLVA+uoRdu23pfz2jSpoQrtn9b4TlV1YJ0WXljbtm3UpEYFtR+7WjNvqqVjen6obVKFdfph8Qpt3DhZl1fNVe9PkWbka37/E3V099nb02wnbv73GnBSTV331ncaeuYhavXYAq2fdp1qntBPX8zqqdyjbtE73hzN14o54/XEg3119x0365JGOapz22zlAUDHNfW2QKsnX6k6pwzUvHWvqlPVA1Wnxba2t23TRDUqtNfYNfPV/8SjdOv7eVo3/mJVO+UhfbcdSDe9da1qthis5esn6pLKx+veL7ZJYNZPuFg59fvoc36ufFJn5rTVUz8USPnfqv+JR3vAV9aGSabeJwaQTFFyF5dTsORtjXhutgqvPMpfrhc7VlfNG97W+g9vV72G9+hLbyIVaMHApqrZ+TV92b+JqrXurWHDh3s3lw8fPkJjps9QvybV1Lr3sO1hwzV8xBjNXLhUj7Y8WJdPKroab/mij46v11MfeXNxjZ5rX10XjNt24fX/k2SVhrU+WB3uvl51j75N722UtnzYU/Vyu6h3u1pqO2KpsAf+ZUpnHV7lOJ3buZvu7Hu/Ls+tqPOfp6w1Gn3uEbp68vvqfXyuur2zXvnz+6tJtdbqPczaPlwjxszU4tVj1O6Q8zVubb6+vKehcnt9sl1QW6BlT5yuyuc9r1/m9lb9BnfpM6/NWzTnzlwde+ccL92mNzqrZstHtYwGrRmjdtUp6//fJH4qSoEYQIrSI2t/bZnbW7k5Z+nxedu1Lpvma/g5VXV0z9laOqSV9jqkkyavlvKXvKhLDqulLtPWa+WIs5XT/GHN3yLlLZmsHm06aMi8HzXi7Bw1f3i+tihPSyb3UJsOQzQvf7VGta2oFoMXKr9glWb0aKLjbp2h5aPaqnrHCfJqzXtXNx95sgZ8b3snI+d6PX9+JVWsVFPnPfuDBxb53/RTo/IVlFOvu973LtTP06zb6m7ncAq08p071Wj/E9R/PmVt0Ye356phy1NVp8M4rWByrxyhs3Oa6+FtjdfkHm3UYcg8bZh5k2o3HagFBQVa8khzVWkzXIvypbxF49Wp9iHq8OJKrXqqrQ6/6nVtu8d/pZ48q7oufRlgzNe8fo11TI8PPDDJe6erjjx5gHZ4HXut2FcMIGVlEBQs0yvdmqjSXuWUU+NQVfnLfqpxRl/N+HmDXr+qhnLPaK3DKubooHKV1fy+mVrlrbAz1LtxBZUrX1Hl9jlYLftM08oCac2M3mpcoZzKVyynfQ5uqT7TVnqTftVbt6tB+f1VqdL+Oij3Or20ZKOmd6mlZoMWe/EFiwepWa0umr6D5nSTXruyivZqcN/2VV8qWD5Yp+55gNqOWublpRvWzeip3P3LqVLlHB3Woq1OyGmuwctpqPTLqDbae99TNOgbA6c1mtG7sSqUK6+K5fbRwS37aNrKLVo4sKmOuHGGt4Uq+PlNdW9wkMpVqKwD96uiU3q+ruUFeZre5UidNWzFtp7f9JauqdlCjyylnl80+u+H6MIXOFtVoMWDmqlWl+lFt2PbcsX/t1MgBpAyNhTyf1mir+Z+rm+Wr9s2MfPnqV/jo3TrrDytW/atvlvh+35OwTotm/e1Fq0uOusL1i3TvK8XyRes/DVL9M23y7R227zOOPXyVi3U/CVrZDARXUGB1i2bp68XrQ6f5AVrtXTeV1rwc9H3iy43jk2WAjGAJEupbE3HPr7aefJECdn6DnG7Sy0FYgAptV2ToYblrdD8ecu2ySgyVGRcTEwBo0AMIEaJ2I8pEFMgZQrEAJIyyeIMMQViChgF/g+1Ggx7cFMgzgAAAABJRU5ErkJggg==;" parent="1" vertex="1">
          <mxGeometry x="580" y="26" width="272" height="88" as="geometry" />
        </mxCell>
        <mxCell id="2XuXiQTuLc87KXWq7jhm-43" style="edgeStyle=orthogonalEdgeStyle;rounded=0;orthogonalLoop=1;jettySize=auto;html=1;exitX=0.5;exitY=1;exitDx=0;exitDy=0;entryX=0.5;entryY=0;entryDx=0;entryDy=0;" parent="1" source="2XuXiQTuLc87KXWq7jhm-24" target="2XuXiQTuLc87KXWq7jhm-40" edge="1">
          <mxGeometry relative="1" as="geometry" />
        </mxCell>
        <mxCell id="2XuXiQTuLc87KXWq7jhm-24" value="" style="shape=orEllipse;perimeter=ellipsePerimeter;whiteSpace=wrap;html=1;backgroundOutline=1;" parent="1" vertex="1">
          <mxGeometry x="407" y="690" width="40" height="40" as="geometry" />
        </mxCell>
        <mxCell id="2XuXiQTuLc87KXWq7jhm-26" value="" style="edgeStyle=elbowEdgeStyle;elbow=horizontal;endArrow=classic;html=1;rounded=0;entryX=0.5;entryY=0;entryDx=0;entryDy=0;" parent="1" target="2XuXiQTuLc87KXWq7jhm-27" edge="1">
          <mxGeometry width="50" height="50" relative="1" as="geometry">
            <mxPoint x="410" y="530" as="sourcePoint" />
            <mxPoint x="330" y="580" as="targetPoint" />
            <Array as="points">
              <mxPoint x="330" y="540" />
            </Array>
          </mxGeometry>
        </mxCell>
        <mxCell id="2XuXiQTuLc87KXWq7jhm-35" value="" style="edgeStyle=orthogonalEdgeStyle;rounded=0;orthogonalLoop=1;jettySize=auto;html=1;" parent="1" source="2XuXiQTuLc87KXWq7jhm-27" target="2XuXiQTuLc87KXWq7jhm-32" edge="1">
          <mxGeometry relative="1" as="geometry" />
        </mxCell>
        <mxCell id="2XuXiQTuLc87KXWq7jhm-27" value="BN + GRU (1024)" style="rounded=0;whiteSpace=wrap;html=1;" parent="1" vertex="1">
          <mxGeometry x="270" y="560" width="120" height="60" as="geometry" />
        </mxCell>
        <mxCell id="2XuXiQTuLc87KXWq7jhm-36" value="" style="edgeStyle=orthogonalEdgeStyle;rounded=0;orthogonalLoop=1;jettySize=auto;html=1;" parent="1" source="2XuXiQTuLc87KXWq7jhm-29" target="2XuXiQTuLc87KXWq7jhm-33" edge="1">
          <mxGeometry relative="1" as="geometry" />
        </mxCell>
        <mxCell id="2XuXiQTuLc87KXWq7jhm-29" value="BN + ASP" style="whiteSpace=wrap;html=1;" parent="1" vertex="1">
          <mxGeometry x="460" y="560" width="120" height="60" as="geometry" />
        </mxCell>
        <mxCell id="2XuXiQTuLc87KXWq7jhm-30" value="" style="endArrow=classic;html=1;rounded=0;entryX=0.5;entryY=0;entryDx=0;entryDy=0;" parent="1" target="2XuXiQTuLc87KXWq7jhm-29" edge="1">
          <mxGeometry width="50" height="50" relative="1" as="geometry">
            <mxPoint x="410" y="530" as="sourcePoint" />
            <mxPoint x="530" y="610" as="targetPoint" />
            <Array as="points">
              <mxPoint x="520" y="530" />
            </Array>
          </mxGeometry>
        </mxCell>
        <mxCell id="2XuXiQTuLc87KXWq7jhm-31" value="" style="endArrow=classic;html=1;rounded=0;" parent="1" edge="1">
          <mxGeometry width="50" height="50" relative="1" as="geometry">
            <mxPoint x="425" y="500" as="sourcePoint" />
            <mxPoint x="425" y="530" as="targetPoint" />
          </mxGeometry>
        </mxCell>
        <mxCell id="2XuXiQTuLc87KXWq7jhm-37" style="edgeStyle=orthogonalEdgeStyle;rounded=0;orthogonalLoop=1;jettySize=auto;html=1;exitX=0.5;exitY=1;exitDx=0;exitDy=0;entryX=0;entryY=0.5;entryDx=0;entryDy=0;" parent="1" source="2XuXiQTuLc87KXWq7jhm-32" target="2XuXiQTuLc87KXWq7jhm-24" edge="1">
          <mxGeometry relative="1" as="geometry" />
        </mxCell>
        <mxCell id="2XuXiQTuLc87KXWq7jhm-32" value="Speaker emb 1 (512)" style="rounded=0;whiteSpace=wrap;html=1;" parent="1" vertex="1">
          <mxGeometry x="270" y="640" width="120" height="40" as="geometry" />
        </mxCell>
        <mxCell id="2XuXiQTuLc87KXWq7jhm-38" style="edgeStyle=orthogonalEdgeStyle;rounded=0;orthogonalLoop=1;jettySize=auto;html=1;exitX=0.5;exitY=1;exitDx=0;exitDy=0;entryX=1;entryY=0.5;entryDx=0;entryDy=0;" parent="1" source="2XuXiQTuLc87KXWq7jhm-33" target="2XuXiQTuLc87KXWq7jhm-24" edge="1">
          <mxGeometry relative="1" as="geometry" />
        </mxCell>
        <mxCell id="2XuXiQTuLc87KXWq7jhm-33" value="Speaker emb 1 (512)" style="rounded=0;whiteSpace=wrap;html=1;" parent="1" vertex="1">
          <mxGeometry x="460" y="640" width="120" height="40" as="geometry" />
        </mxCell>
        <mxCell id="2XuXiQTuLc87KXWq7jhm-44" style="edgeStyle=orthogonalEdgeStyle;rounded=0;orthogonalLoop=1;jettySize=auto;html=1;exitX=0.5;exitY=1;exitDx=0;exitDy=0;entryX=0.5;entryY=0;entryDx=0;entryDy=0;" parent="1" source="2XuXiQTuLc87KXWq7jhm-40" target="2XuXiQTuLc87KXWq7jhm-42" edge="1">
          <mxGeometry relative="1" as="geometry" />
        </mxCell>
        <mxCell id="2XuXiQTuLc87KXWq7jhm-40" value="Mean Speaker emb (512)" style="rounded=0;whiteSpace=wrap;html=1;" parent="1" vertex="1">
          <mxGeometry x="367" y="750" width="120" height="60" as="geometry" />
        </mxCell>
        <mxCell id="2XuXiQTuLc87KXWq7jhm-42" value="Classification (number of speaker)" style="rounded=0;whiteSpace=wrap;html=1;" parent="1" vertex="1">
          <mxGeometry x="290" y="830" width="270" height="30" as="geometry" />
        </mxCell>
      </root>
    </mxGraphModel>
  </diagram>
</mxfile>
